<svg aria-hidden="true" style="position: absolute; width: 0; height: 0; overflow: hidden;" version="1.1"
    xmlns="http://www.w3.org/2000/svg" xmlns:xlink="http://www.w3.org/1999/xlink">
    <defs>
        <symbol id="icon-yellow-circle" viewBox="0 0 31 32">
            <path fill="#fcd043"
                d="M15.467 0l9.405 3.056 5.812 8v9.889l-5.812 8-9.405 3.056-9.405-3.056-5.812-8v-9.889l5.812-8 9.405-3.056z">
            </path>
        </symbol>
        <symbol id="icon-burger" viewBox="0 0 118 32">
            <path fill="#fffcf6" d="M0.066 0h118.333v3.2h-118.333v-3.2z"></path>
            <path fill="#fffcf6" d="M0.066 28.8h118.333v3.2h-118.333v-3.2z"></path>
        </symbol>
        <symbol id="icon-button-default" viewBox="0 0 32 32">
            <path fill="none" opacity="0.48" stroke="#313f38" style="stroke: var(--color1, #313f38)"
                stroke-linejoin="miter" stroke-linecap="butt" stroke-miterlimit="4" stroke-width="0.4571"
                d="M3.25 25.263l-3.010-9.263 3.010-9.263 7.88-5.725h9.74l7.88 5.725 3.010 9.263-3.010 9.263-7.88 5.725h-9.74l-7.88-5.725z">
            </path>
            <path fill="none" stroke="#313f38" style="stroke: var(--color1, #313f38)" stroke-linejoin="miter"
                stroke-linecap="butt" stroke-miterlimit="4" stroke-width="0.4571"
                d="M17.038 13.040c0 0 0.227 0.871 0.909 1.617s1.817 1.369 1.817 1.369c0 0-1.136 0.622-1.817 1.369s-0.909 1.617-0.909 1.617">
            </path>
            <path d="M12.3 16.092v-0.13h7.14v0.13h-7.14z"></path>
        </symbol>
        <symbol id="icon-star" viewBox="0 0 32 32">
            <path fill="#fcd043" style="fill: var(--color1, #fcd043)"
                d="M16.001 4.686l1.2 10.114 10.114 1.2-10.114 1.2-1.2 10.114-1.2-10.114-10.114-1.2 10.114-1.2 1.2-10.114z">
            </path>
            <path fill="#fcd043" style="fill: var(--color1, #fcd043)"
                d="M8 8l8 6.303 8-6.303-6.303 8 6.303 8-8-6.303-8 6.303 6.303-8-6.303-8z"></path>
        </symbol>
        <symbol id="icon-label" viewBox="0 0 43 32">
            <path fill="#fffcf6" style="fill: var(--color1, #fffcf6)" opacity="0.64"
                d="M2.164 31.58l-0.483-1.127c-0.215-0.519-0.054-0.912 0.411-1.127 0.483-0.215 0.894-0.054 1.109 0.465l0.34 0.787 1.055-0.465 0.143 0.34-2.576 1.127zM3.255 30.704l-0.286-0.68c-0.161-0.394-0.411-0.483-0.716-0.358s-0.394 0.376-0.233 0.769l0.286 0.68 0.948-0.411z">
            </path>
            <path fill="#fffcf6" style="fill: var(--color1, #fffcf6)" opacity="0.64"
                d="M0.841 28.111l-0.304-1.288c-0.125-0.519 0.089-0.894 0.519-1.002 0.322-0.072 0.644 0 0.805 0.304-0.018-0.34 0.197-0.447 0.465-0.537s0.572-0.143 0.716-0.34l0.089 0.411c-0.089 0.125-0.394 0.143-0.644 0.25s-0.465 0.215-0.394 0.572l0.215 0.894 1.163-0.268 0.089 0.358-2.719 0.644zM1.825 26.697c-0.072-0.34-0.233-0.608-0.626-0.519-0.268 0.072-0.429 0.25-0.358 0.59l0.215 0.912 0.948-0.233-0.179-0.751z">
            </path>
            <path fill="#fffcf6" style="fill: var(--color1, #fffcf6)" opacity="0.64"
                d="M0.109 24.319l-0.107-1.932 0.322-0.018 0.089 1.556 0.894-0.054-0.089-1.449 0.322-0.018 0.072 1.467 0.966-0.054-0.089-1.574 0.322-0.018 0.107 1.95-2.809 0.143z">
            </path>
            <path fill="#fffcf6" style="fill: var(--color1, #fffcf6)" opacity="0.64"
                d="M0.017 20.704l0.072-0.501 2.451-0.572-2.218-1.181 0.072-0.501 2.791 0.358-0.054 0.358-2.326-0.304 2.2 1.181-0.036 0.322-2.433 0.555 2.326 0.304-0.054 0.358-2.791-0.376z">
            </path>
            <path fill="#fffcf6" style="fill: var(--color1, #fffcf6)" opacity="0.64"
                d="M0.84 16.232l0.107-0.358 2.701 0.805-0.107 0.358-2.701-0.805z"></path>
            <path fill="#fffcf6" style="fill: var(--color1, #fffcf6)" opacity="0.64"
                d="M4.062 12.941c0.644 0.286 0.823 0.823 0.519 1.449-0.304 0.662-0.787 0.912-1.467 0.59l-1.628-0.751 0.161-0.34 1.628 0.751c0.447 0.215 0.823 0.054 1.020-0.394 0.197-0.429 0.054-0.787-0.394-0.984l-1.628-0.751 0.161-0.34 1.628 0.769z">
            </path>
            <path fill="#fffcf6" style="fill: var(--color1, #fffcf6)" opacity="0.64"
                d="M3.346 10.598l0.304-0.411 2.433 0.68-1.377-2.111 0.304-0.411 2.272 1.664-0.215 0.286-1.878-1.377 1.36 2.093-0.197 0.25-2.397-0.68 1.878 1.377-0.215 0.286-2.272-1.646z">
            </path>
            <path fill="#fffcf6" style="fill: var(--color1, #fffcf6)" opacity="0.64"
                d="M7.801 5.572l1.055-0.787c0.429-0.322 0.859-0.286 1.127 0.072 0.197 0.268 0.25 0.59 0.036 0.859 0.304-0.143 0.501 0 0.68 0.215s0.358 0.465 0.59 0.519l-0.34 0.25c-0.161-0.036-0.286-0.304-0.501-0.501-0.197-0.197-0.394-0.34-0.68-0.125l-0.733 0.555 0.716 0.966-0.304 0.233-1.646-2.254zM9.5 5.912c0.286-0.215 0.465-0.465 0.215-0.787-0.161-0.215-0.411-0.286-0.68-0.089l-0.751 0.555 0.59 0.787 0.626-0.465z">
            </path>
            <path fill="#fffcf6" style="fill: var(--color1, #fffcf6)" opacity="0.64"
                d="M12.040 2.779c0.805-0.394 1.521 0.036 1.86 0.733 0.34 0.68 0.25 1.521-0.555 1.914s-1.521-0.036-1.86-0.733c-0.358-0.68-0.25-1.521 0.555-1.914zM13.185 5.141c0.608-0.304 0.608-0.966 0.358-1.467s-0.769-0.912-1.377-0.608c-0.608 0.304-0.608 0.966-0.358 1.467s0.769 0.912 1.377 0.608z">
            </path>
            <path fill="#fffcf6" style="fill: var(--color1, #fffcf6)" opacity="0.64"
                d="M15.975 1.314c0.859-0.233 1.485 0.34 1.682 1.073s-0.054 1.538-0.93 1.771c-0.877 0.233-1.485-0.34-1.682-1.073-0.179-0.751 0.072-1.556 0.93-1.771zM16.655 3.854c0.662-0.179 0.787-0.823 0.644-1.36-0.143-0.555-0.572-1.038-1.234-0.877-0.662 0.179-0.787 0.823-0.644 1.36 0.143 0.555 0.572 1.038 1.234 0.877z">
            </path>
            <path fill="#fffcf6" style="fill: var(--color1, #fffcf6)" opacity="0.64"
                d="M18.982 0.759l0.519-0.036 1.002 2.308 0.769-2.397 0.519-0.036 0.143 2.809-0.358 0.018-0.125-2.343-0.751 2.379-0.322 0.018-1.002-2.29 0.125 2.343-0.358 0.018-0.161-2.791z">
            </path>
            <path fill="#fffcf6" style="fill: var(--color1, #fffcf6)" opacity="0.64"
                d="M25.1 1.761c0.018-0.411-0.233-0.608-0.608-0.662-0.304-0.036-0.644 0.018-0.698 0.394-0.054 0.34 0.394 0.465 0.823 0.626s0.859 0.376 0.769 0.93c-0.089 0.59-0.698 0.751-1.199 0.68-0.626-0.089-1.109-0.465-1.020-1.145l0.358 0.054c-0.072 0.465 0.304 0.733 0.716 0.787 0.34 0.054 0.716 0 0.769-0.411 0.054-0.376-0.376-0.519-0.805-0.68s-0.859-0.358-0.787-0.859c0.072-0.572 0.626-0.751 1.127-0.68 0.572 0.072 0.966 0.411 0.894 1.020l-0.34-0.054z">
            </path>
            <path fill="#fffcf6" style="fill: var(--color1, #fffcf6)" opacity="0.64"
                d="M26.528 3.692l0.411 0.125-0.125 0.411-0.411-0.125 0.125-0.411z"></path>
            <path fill="#fffcf6" style="fill: var(--color1, #fffcf6)" opacity="0.64"
                d="M31.163 2.905l0.894 0.501c0.215 0.125 0.501 0.286 0.59 0.447 0.107 0.179 0.143 0.429 0 0.68-0.143 0.268-0.394 0.376-0.68 0.34 0.268 0.233 0.304 0.555 0.125 0.859-0.197 0.358-0.662 0.555-1.145 0.286l-1.181-0.662 1.395-2.451zM30.269 5.248l0.823 0.465c0.286 0.161 0.555 0.089 0.716-0.179 0.179-0.322-0.036-0.555-0.304-0.716l-0.751-0.411-0.483 0.841zM30.895 4.139l0.644 0.376c0.376 0.215 0.59 0.161 0.733-0.089 0.197-0.34-0.018-0.519-0.304-0.68l-0.644-0.376-0.429 0.769z">
            </path>
            <path fill="#fffcf6" style="fill: var(--color1, #fffcf6)" opacity="0.64"
                d="M35.043 5.427l0.322 0.268-0.948 2.862-0.322-0.268 0.304-0.841-0.912-0.751-0.787 0.447-0.304-0.25 2.648-1.467zM33.773 6.518l0.733 0.608 0.465-1.306-1.199 0.698z">
            </path>
            <path fill="#fffcf6" style="fill: var(--color1, #fffcf6)" opacity="0.64"
                d="M37.227 7.413l0.25 0.304-0.787 2.594 1.735-1.467 0.233 0.268-2.147 1.825-0.268-0.304 0.769-2.576-1.717 1.449-0.233-0.268 2.165-1.825z">
            </path>
            <path fill="#fffcf6" style="fill: var(--color1, #fffcf6)" opacity="0.64"
                d="M39.696 10.598l0.179 0.322-1.216 0.698 1.932 0.537 0.233 0.411-1.574-0.465-0.841 1.896-0.233-0.411 0.733-1.592-0.608-0.197-0.859 0.483-0.179-0.322 2.433-1.36z">
            </path>
            <path fill="#fffcf6" style="fill: var(--color1, #fffcf6)" opacity="0.64"
                d="M42.147 15.947l0.089 0.358-1.181 0.286 0.358 1.431 1.181-0.286 0.089 0.358-2.737 0.662-0.089-0.358 1.252-0.304-0.358-1.431-1.252 0.304-0.089-0.358 2.737-0.662z">
            </path>
            <path fill="#fffcf6" style="fill: var(--color1, #fffcf6)" opacity="0.64"
                d="M43.077 21.098c0.036 0.894-0.644 1.377-1.413 1.413s-1.485-0.376-1.538-1.27c-0.054-0.894 0.644-1.377 1.413-1.413s1.485 0.376 1.538 1.27zM40.447 21.224c0.036 0.68 0.644 0.948 1.199 0.912s1.145-0.34 1.109-1.020c-0.036-0.68-0.644-0.948-1.199-0.912s-1.145 0.34-1.109 1.020z">
            </path>
            <path fill="#fffcf6" style="fill: var(--color1, #fffcf6)" opacity="0.64"
                d="M42.575 24.658l0.125-0.93 0.304 0.036-0.286 2.236-0.304-0.036 0.125-0.93-2.469-0.322 0.054-0.376 2.451 0.322z">
            </path>
            <path fill="#fffcf6" style="fill: var(--color1, #fffcf6)" opacity="0.64"
                d="M42.398 27.413l-0.555 1.86-0.304-0.089 0.447-1.503-0.859-0.25-0.411 1.395-0.304-0.089 0.411-1.395-0.93-0.268-0.447 1.521-0.304-0.089 0.555-1.878 2.701 0.787z">
            </path>
            <path fill="#fffcf6" style="fill: var(--color1, #fffcf6)" opacity="0.64"
                d="M41.251 30.757l-0.161 0.34-2.254-1.073-0.644 1.342-0.286-0.143 0.805-1.682 2.54 1.216z"></path>
            <path fill="#fcd043" style="fill: var(--color2, #fcd043)"
                d="M18.585 17.951c-0.245-0.321-0.152-0.785 0.198-0.987 0.327-0.189 0.744-0.047 0.89 0.3l1.96 4.686-3.048-4z">
            </path>
            <path fill="#fcd043" style="fill: var(--color2, #fcd043)"
                d="M25.633 18.903c0.321-0.245 0.785-0.152 0.987 0.198 0.189 0.327 0.047 0.744-0.3 0.89l-4.686 1.96 4-3.048z">
            </path>
            <path fill="#fcd043" style="fill: var(--color2, #fcd043)"
                d="M22.327 16.973c0.054-0.4 0.448-0.662 0.838-0.558 0.364 0.098 0.56 0.493 0.417 0.842l-1.928 4.7 0.673-4.984z">
            </path>
            <path fill="#fcd043" style="fill: var(--color2, #fcd043)"
                d="M26.639 22.631c0.4 0.054 0.662 0.448 0.558 0.838-0.098 0.364-0.493 0.56-0.842 0.417l-4.7-1.928 4.984 0.673z">
            </path>
            <path fill="#fcd043" style="fill: var(--color2, #fcd043)"
                d="M24.679 25.951c0.245 0.321 0.152 0.785-0.198 0.987-0.327 0.189-0.744 0.047-0.89-0.3l-1.96-4.686 3.048 4z">
            </path>
            <path fill="#fcd043" style="fill: var(--color2, #fcd043)"
                d="M17.631 24.998c-0.321 0.245-0.785 0.152-0.987-0.198-0.189-0.327-0.047-0.744 0.3-0.89l4.686-1.96-4 3.048z">
            </path>
            <path fill="#fcd043" style="fill: var(--color2, #fcd043)"
                d="M20.981 26.942c-0.054 0.4-0.448 0.662-0.838 0.558-0.364-0.098-0.56-0.493-0.417-0.842l1.928-4.7-0.673 4.984z">
            </path>
            <path fill="#fcd043" style="fill: var(--color2, #fcd043)"
                d="M16.672 21.284c-0.4-0.054-0.662-0.448-0.558-0.838 0.098-0.364 0.493-0.56 0.842-0.417l4.7 1.928-4.984-0.673z">
            </path>
        </symbol>
        <symbol id="icon-star-footer" viewBox="0 0 32 32">
            <path fill="#fcd043" style="fill: var(--color1, #fcd043)"
                d="M16 0l1.164 10.522 5.344-9.139-3.216 10.086 8.599-6.176-7.041 7.906 10.367-2.144-9.648 4.359 10.343 2.258-10.586 0.058 8.53 6.27-9.695-4.253 5.243 9.197-7.127-7.828 1.049 10.535-3.327-10.050-3.327 10.050 1.049-10.535-7.127 7.828 5.243-9.197-9.695 4.253 8.53-6.27-10.586-0.058 10.343-2.258-9.648-4.359 10.367 2.144-7.041-7.906 8.599 6.176-3.216-10.086 5.344 9.139 1.164-10.522z">
            </path>
        </symbol>
        <symbol id="icon-close" viewBox="0 0 32 32">
            <path fill="#fffcf6" style="fill: var(--color1, #fffcf6)"
                d="M0.78 0.005l31.21 31.21-0.78 0.78-31.21-31.21 0.78-0.78z"></path>
            <path fill="#fffcf6" style="fill: var(--color1, #fffcf6)"
                d="M31.211 0.005l-31.21 31.21 0.78 0.78 31.21-31.21-0.78-0.78z"></path>
        </symbol>
        <symbol id="icon-facebook" viewBox="0 0 32 32">
            <path
                d="M21.329 5.313h2.921V.225C23.746.156 22.013 0 19.994 0c-4.212 0-7.097 2.649-7.097 7.519V12H8.249v5.688h4.648V32h5.699V17.689h4.46l.708-5.688h-5.169V8.082c.001-1.644.444-2.769 2.735-2.769z" />
        </symbol>
        <symbol id="icon-twitter" viewBox="0 0 32 32">
            <path
                d="M32 6.078c-1.19.522-2.458.868-3.78 1.036a6.523 6.523 0 0 0 2.886-3.626 13.11 13.11 0 0 1-4.16 1.588A6.574 6.574 0 0 0 22.154 3c-3.632 0-6.556 2.948-6.556 6.562 0 .52.044 1.02.152 1.496-5.454-.266-10.28-2.88-13.522-6.862a6.605 6.605 0 0 0-.898 3.316 6.57 6.57 0 0 0 2.914 5.452 6.479 6.479 0 0 1-2.964-.808v.072c0 3.188 2.274 5.836 5.256 6.446a6.548 6.548 0 0 1-1.72.216 5.8 5.8 0 0 1-1.242-.112c.85 2.598 3.262 4.508 6.13 4.57a13.182 13.182 0 0 1-8.134 2.798c-.538 0-1.054-.024-1.57-.09A18.469 18.469 0 0 0 10.064 29c12.072 0 18.672-10 18.672-18.668 0-.29-.01-.57-.024-.848A13.087 13.087 0 0 0 32 6.078z" />
        </symbol>
        <symbol id="icon-instagram" viewBox="0 0 32 32">
            <path
                d="M31.969 9.408c-.075-1.7-.35-2.869-.744-3.882a7.803 7.803 0 0 0-1.85-2.838A7.867 7.867 0 0 0 26.543.844C25.524.45 24.361.175 22.661.1 20.948.019 20.404 0 16.06 0s-4.888.019-6.595.094c-1.7.075-2.869.35-3.882.744a7.803 7.803 0 0 0-2.838 1.85A7.867 7.867 0 0 0 .901 5.52C.507 6.539.232 7.702.157 9.402c-.081 1.713-.1 2.257-.1 6.601s.019 4.888.094 6.595c.075 1.7.35 2.869.744 3.882a7.895 7.895 0 0 0 1.85 2.838 7.867 7.867 0 0 0 2.832 1.844c1.019.394 2.182.669 3.882.744 1.706.075 2.25.094 6.595.094s4.888-.018 6.595-.094c1.7-.075 2.869-.35 3.882-.744a8.181 8.181 0 0 0 4.682-4.682c.394-1.019.669-2.182.744-3.882.075-1.707.094-2.251.094-6.595s-.006-4.888-.081-6.595zm-2.882 13.065c-.069 1.563-.331 2.407-.55 2.969a5.307 5.307 0 0 1-3.038 3.038c-.563.219-1.413.481-2.969.55-1.688.075-2.194.094-6.464.094s-4.782-.018-6.464-.094c-1.563-.069-2.407-.331-2.969-.55a4.926 4.926 0 0 1-1.838-1.194 4.974 4.974 0 0 1-1.194-1.838c-.219-.563-.481-1.413-.55-2.969-.075-1.688-.094-2.194-.094-6.464s.019-4.782.094-6.464c.069-1.563.331-2.407.55-2.969a4.868 4.868 0 0 1 1.2-1.838A4.974 4.974 0 0 1 6.639 3.55c.563-.219 1.413-.481 2.969-.55 1.688-.075 2.194-.094 6.464-.094 4.276 0 4.782.019 6.464.094 1.563.069 2.407.331 2.969.55a4.914 4.914 0 0 1 1.838 1.194 4.974 4.974 0 0 1 1.194 1.838c.219.563.481 1.413.55 2.969.075 1.688.094 2.194.094 6.464s-.019 4.77-.094 6.457z" />
            <path
                d="M16.059 7.782c-4.538 0-8.22 3.682-8.22 8.22s3.682 8.22 8.22 8.22 8.22-3.682 8.22-8.22-3.682-8.22-8.22-8.22zm0 13.553a5.333 5.333 0 0 1 0-10.664 5.333 5.333 0 0 1 0 10.664zM26.524 7.457a1.919 1.919 0 1 1-3.838 0 1.919 1.919 0 0 1 3.838 0z" />
        </symbol>
        <symbol id="icon-button-default-yellow" viewBox="0 0 32 32">
            <path fill="none" opacity="0.32" stroke="#fffcf6" style="stroke: var(--color1, #fffcf6)"
                stroke-linejoin="miter" stroke-linecap="butt" stroke-miterlimit="4" stroke-width="0.7111"
                d="M4.958 4.958l11.042-4.574 11.042 4.574 4.574 11.042-4.574 11.042-11.042 4.574-11.042-4.574-4.574-11.042 4.574-11.042z">
            </path>
            <path fill="none" stroke="#fcd043" style="stroke: var(--color2, #fcd043)" stroke-linejoin="miter"
                stroke-linecap="butt" stroke-miterlimit="4" stroke-width="0.7111"
                d="M19.657 15.086c0 0-1.067 0.305-1.981 1.219s-1.676 2.438-1.676 2.438-0.762-1.524-1.676-2.438c-0.914-0.914-1.981-1.219-1.981-1.219">
            </path>
        </symbol>
    </defs>
</svg>